<?xml version="1.0" standalone="no"?><!DOCTYPE svg PUBLIC "-//W3C//DTD SVG 1.1//EN" "http://www.w3.org/Graphics/SVG/1.1/DTD/svg11.dtd"><svg t="1546671923037" class="icon" style="" viewBox="0 0 1024 1024" version="1.1" xmlns="http://www.w3.org/2000/svg" p-id="6089" xmlns:xlink="http://www.w3.org/1999/xlink" width="200" height="200"><defs><style type="text/css"></style></defs><path d="M666.88 355.072l-76.864-11.2a26.56 26.56 0 0 1-19.904-14.464L535.744 259.84a26.432 26.432 0 0 0-47.488 0l-34.368 69.568a26.24 26.24 0 0 1-19.904 14.464l-76.8 11.136a26.496 26.496 0 0 0-14.72 45.184l55.616 54.208a26.56 26.56 0 0 1 7.616 23.424l-13.12 76.544a26.432 26.432 0 0 0 38.4 27.904l68.736-36.096a26.624 26.624 0 0 1 24.64 0l68.736 36.096a26.432 26.432 0 0 0 38.336-27.904l-13.12-76.544A26.56 26.56 0 0 1 625.92 454.4l55.616-54.144a26.496 26.496 0 0 0-14.656-45.184z" fill="#1296db" p-id="6090"></path><path d="M806.656 719.68a413.568 413.568 0 1 0-589.312 0l-114.048 135.936a20.48 20.48 0 0 0 13.696 33.6l83.328 8.32a20.48 20.48 0 0 1 17.664 14.912l22.72 80.576a20.48 20.48 0 0 0 35.456 7.68l141.376-168.512a413.824 413.824 0 0 0 188.928-0.064l141.44 168.512a20.48 20.48 0 0 0 35.456-7.68l22.656-80.576a20.608 20.608 0 0 1 17.728-14.912l83.328-8.32a20.544 20.544 0 0 0 13.696-33.6l-114.112-135.872zM512 778.048a348.928 348.928 0 0 1-348.544-348.48A348.928 348.928 0 0 1 512 81.024a348.864 348.864 0 0 1 348.48 348.544A348.864 348.864 0 0 1 512 778.048z" fill="#1296db" p-id="6091"></path></svg>