<?xml version="1.0" standalone="no"?><!DOCTYPE svg PUBLIC "-//W3C//DTD SVG 1.1//EN" "http://www.w3.org/Graphics/SVG/1.1/DTD/svg11.dtd"><svg t="1544689798462" class="icon" style="" viewBox="0 0 1024 1024" version="1.1" xmlns="http://www.w3.org/2000/svg" p-id="8492" xmlns:xlink="http://www.w3.org/1999/xlink" width="200" height="200"><defs><style type="text/css"></style></defs><path d="M505.856 1003.52C407.552 1003.52 327.68 928.768 327.68 837.632c0-22.528 18.432-40.96 40.96-40.96s40.96 18.432 40.96 40.96c0 46.08 43.008 83.968 97.28 83.968s97.28-37.888 97.28-83.968c0-22.528 18.432-40.96 40.96-40.96s40.96 18.432 40.96 40.96C684.032 928.768 604.16 1003.52 505.856 1003.52z" fill="#FFA028" p-id="8493"></path><path d="M803.84 839.68H207.872c-29.696 0-54.272-24.576-54.272-54.272V487.424c0-194.56 157.696-352.256 352.256-352.256s352.256 157.696 352.256 352.256v297.984c0 29.696-24.576 54.272-54.272 54.272zM505.856 189.44c-164.864 0-297.984 134.144-297.984 297.984v297.984h595.968V487.424c0-164.864-134.144-297.984-297.984-297.984z" fill="#4C4C4C" p-id="8494"></path><path d="M478.208 36.864H532.48v124.928h-54.272z" fill="#4C4C4C" p-id="8495"></path></svg>